<svg id="Layer_1" data-name="Layer 1" xmlns="http://www.w3.org/2000/svg" viewBox="0 0 1014.04 106.05"><defs><style>.cls-1{fill:#fff;}</style></defs><title>its-just-scouting</title><path class="cls-1" d="M8.6,108.41a21.31,21.31,0,0,1,2.31-9.18,25.27,25.27,0,0,1,5.74-8L23,94.7a26.33,26.33,0,0,0-3.56,13.71v8.48H8.6Zm14.81,0a21.31,21.31,0,0,1,2.31-9.18,25.27,25.27,0,0,1,5.74-8l6.32,3.43a26.08,26.08,0,0,0-3.56,13.71v8.48H23.41Z" transform="translate(-8.6 -76.47)"/><path class="cls-1" d="M50.19,105V97.25h26.5V105l-6.86,1.32v45.92l6.86,1.32v7.69H50.19v-7.69L57,152.22V106.3Z" transform="translate(-8.6 -76.47)"/><path class="cls-1" d="M137.9,97.25v17h-9.84l-.53-7.16H115.76v45.08l6.85,1.32v7.69H96.07v-7.69l6.85-1.32V107.14H91.19l-.53,7.16h-9.8v-17Z" transform="translate(-8.6 -76.47)"/><path class="cls-1" d="M156.54,101.07a21.42,21.42,0,0,1-2.33,9.25,26,26,0,0,1-5.67,7.93l-6.33-3.47a28.83,28.83,0,0,0,2.64-6.3,27.57,27.57,0,0,0,.92-7.41V92.68h10.77Z" transform="translate(-8.6 -76.47)"/><path class="cls-1" d="M211.38,117.68h-9.62l-1.67-8.79a17.28,17.28,0,0,0-4.88-1.84,28.25,28.25,0,0,0-6.81-.79q-5.28,0-8.15,2.22a6.92,6.92,0,0,0-2.88,5.73,6.26,6.26,0,0,0,3,5.34q3,2.08,10.39,4.42,10.59,2.94,16.06,7.78a16.11,16.11,0,0,1,5.47,12.7,15.2,15.2,0,0,1-6.5,13q-6.51,4.74-17.14,4.75a37.15,37.15,0,0,1-13.73-2.42,28.33,28.33,0,0,1-10.22-6.68V139.7h9.93l1.36,9.1a15.64,15.64,0,0,0,5.26,2.61,24.79,24.79,0,0,0,7.4,1c3.52,0,6.19-.71,8-2.15a6.94,6.94,0,0,0,2.75-5.76,7.42,7.42,0,0,0-2.62-5.93q-2.61-2.23-9.16-4.22-11.39-3.28-17.23-7.82a14.84,14.84,0,0,1-5.84-12.39,15.23,15.23,0,0,1,6.59-12.72q6.59-5,16.57-5.08a38.69,38.69,0,0,1,13.45,2.24,31.12,31.12,0,0,1,10.19,6Z" transform="translate(-8.6 -76.47)"/><path class="cls-1" d="M288.15,97.25V105l-6.85,1.32V142q0,9.27-6.05,14.7T260,162.16q-10,0-15.86-4.88t-5.63-14.37l.09-.27h12.48q0,5.06,2.42,7.37a9.05,9.05,0,0,0,6.5,2.3,7.85,7.85,0,0,0,6-2.74,10.86,10.86,0,0,0,2.48-7.54V106.3L261.65,105V97.25h26.5Z" transform="translate(-8.6 -76.47)"/><path class="cls-1" d="M317.55,97.25V105l-6.85,1.32v33.4q0,6.33,3.4,9.47t9.34,3.14q6,0,9.45-3.12t3.43-9.49V106.3L329.51,105V97.25H356V105l-6.85,1.32v33.4q0,10.77-7.1,16.61t-18.61,5.85q-11.47,0-18.52-5.85t-7.06-16.61V106.3L291.05,105V97.25h26.5Z" transform="translate(-8.6 -76.47)"/><path class="cls-1" d="M408.39,117.68h-9.63l-1.67-8.79a17.2,17.2,0,0,0-4.87-1.84,28.27,28.27,0,0,0-6.82-.79q-5.26,0-8.15,2.22a6.92,6.92,0,0,0-2.88,5.73,6.28,6.28,0,0,0,3,5.34q3,2.08,10.4,4.42,10.59,2.94,16.06,7.78a16.11,16.11,0,0,1,5.47,12.7,15.2,15.2,0,0,1-6.5,13q-6.51,4.74-17.14,4.75a37.24,37.24,0,0,1-13.74-2.42,28.28,28.28,0,0,1-10.21-6.68V139.7h9.93l1.36,9.1a15.68,15.68,0,0,0,5.25,2.61,24.81,24.81,0,0,0,7.41,1c3.51,0,6.19-.71,8-2.15a6.93,6.93,0,0,0,2.74-5.76,7.44,7.44,0,0,0-2.61-5.93q-2.61-2.23-9.16-4.22-11.39-3.28-17.23-7.82a14.81,14.81,0,0,1-5.84-12.39,15.2,15.2,0,0,1,6.59-12.72q6.58-5,16.56-5.08a38.61,38.61,0,0,1,13.45,2.24,31.27,31.27,0,0,1,10.2,6Z" transform="translate(-8.6 -76.47)"/><path class="cls-1" d="M470.7,97.25v17h-9.84l-.53-7.16H448.55v45.08l6.86,1.32v7.69H428.87v-7.69l6.85-1.32V107.14H424l-.53,7.16h-9.8v-17Z" transform="translate(-8.6 -76.47)"/><path class="cls-1" d="M648.88,106.35q-8.08,0-12.07,6.16t-4,16.17v1q0,10.11,4,16.28t12.06,6.18q8.13,0,12.22-6.18t4.08-16.28v-1q0-9.93-4.13-16.13T648.88,106.35Z" transform="translate(-8.6 -76.47)"/><path class="cls-1" d="M492.15,76.47l-.23,105,487,1.06.23-105ZM549.62,157q-6.51,4.72-17.14,4.71a37.14,37.14,0,0,1-13.73-2.45,28.11,28.11,0,0,1-10.2-6.7l0-13.36,9.94,0,1.34,9.1a15.53,15.53,0,0,0,5.24,2.63,24.8,24.8,0,0,0,7.41,1c3.51,0,6.19-.7,8-2.13a6.91,6.91,0,0,0,2.76-5.75,7.42,7.42,0,0,0-2.6-5.94q-2.61-2.25-9.15-4.24-11.38-3.31-17.21-7.86a14.81,14.81,0,0,1-5.82-12.4A15.2,15.2,0,0,1,515.12,101q6.6-4.94,16.58-5a38.59,38.59,0,0,1,13.44,2.27,30.93,30.93,0,0,1,10.18,6l0,13.09-9.62,0L544,108.49a16.93,16.93,0,0,0-4.88-1.86,28.18,28.18,0,0,0-6.81-.8q-5.26,0-8.15,2.2a6.87,6.87,0,0,0-2.89,5.73,6.24,6.24,0,0,0,3,5.34q3,2.1,10.39,4.44,10.58,3,16,7.82a16.13,16.13,0,0,1,5.45,12.71A15.21,15.21,0,0,1,549.62,157Zm64.07-38.45-9.53,0-1.3-8.53a13.5,13.5,0,0,0-4.77-3,19.22,19.22,0,0,0-6.78-1.11q-8.35,0-12.87,6t-4.54,15.81V130q0,9.75,4.45,15.87T591,152a20.88,20.88,0,0,0,6.92-1.09,11.47,11.47,0,0,0,4.86-3l1.34-8.53,9.54,0,0,12.65a27.57,27.57,0,0,1-9.88,7.12,32.85,32.85,0,0,1-13.43,2.63q-12.88,0-21.08-9T561.07,130v-2.15q0-13.93,8.22-22.88T590.45,96a32.18,32.18,0,0,1,13.4,2.73,28.77,28.77,0,0,1,9.87,7.16Zm64.36,11q0,14.05-8.09,23.23T648.89,162q-13,0-20.92-9.23T620,129.48v-1q0-14,8-23.19T649,96.15q13,0,21.06,9.27t8,23.22ZM747.45,105l-6.86,1.3-.07,33.4q0,10.77-7.14,16.59t-18.62,5.81q-11.47,0-18.51-5.89t-7-16.62l.07-33.4-6.8-1.33V97.14l6.81,0,12.84,0,6.85,0,0,7.73-6.85,1.31-.08,33.4c0,4.21,1.12,7.37,3.39,9.47s5.38,3.16,9.33,3.17,7.17-1,9.46-3.1,3.44-5.24,3.45-9.49l.07-33.4L721,105V97.23l26.5,0Zm60.09,9.44-9.84,0-.51-7.16-11.78,0-.1,45.09,6.86,1.33,0,7.69-26.54-.05v-7.69l6.86-1.31.1-45.09-11.73,0-.55,7.16-9.8,0,0-17,57,.12Zm30.65-9.25-6.85,1.31-.1,45.92,6.85,1.33,0,7.69-26.5-.05,0-7.7,6.86-1.3.1-45.92-6.85-1.33V97.42l26.5.06Zm70.27.15-6.86,1.31-.11,54.93-12.79,0L863,118.45l-.26,0-.08,34,6.86,1.33,0,7.69-26.5-.06,0-7.69,6.81-1.3.1-45.92-6.81-1.34,0-7.73h6.81l12.83,0,25.75,43.12.26,0,.08-34L882,105.31l0-7.74,19.64.05h6.86Zm56.95,49.26a28.6,28.6,0,0,1-9.1,5.54q-6,2.46-15.13,2.45a29,29,0,0,1-20.31-7.94c-6-5.92-8.53-14.31-8.83-22.56s1.06-16.73,5.86-23.59A27.18,27.18,0,0,1,936,97.13c.48-.07,1-.13,1.43-.18a37,37,0,0,1,22.7,4.89,27.69,27.69,0,0,1,5,3.87l0,12.87-9.49,0L953.82,110a13.19,13.19,0,0,0-4.63-2.41,22.14,22.14,0,0,0-6.61-.91q-8.4,0-13.07,6.17c-3.67,4.86-4.82,11.11-4.79,17.09s.87,12.17,4.63,17q4.56,5.82,13.17,5.85a24.39,24.39,0,0,0,6.27-.65,13.51,13.51,0,0,0,3.76-1.53l0-10.85-9.14-.73,0-9,22,0Z" transform="translate(-8.6 -76.47)"/><path class="cls-1" d="M1007.7,101.08a21.46,21.46,0,0,1-2.33,9.25,25.62,25.62,0,0,1-5.67,7.93l-6.33-3.47a28.23,28.23,0,0,0,2.64-6.31,27.49,27.49,0,0,0,.92-7.4V92.69h10.77Zm14.94,0a21.32,21.32,0,0,1-2.33,9.25,25.62,25.62,0,0,1-5.67,7.93l-6.33-3.47a27.77,27.77,0,0,0,2.64-6.31,27.08,27.08,0,0,0,.93-7.4V92.69h10.76Z" transform="translate(-8.6 -76.47)"/></svg>