<svg id="Layer_1" data-name="Layer 1" xmlns="http://www.w3.org/2000/svg" viewBox="0 0 200 200"><defs><style>.cls-1{fill:#f7f7f7;}.cls-2{fill:#322f2a;}.cls-3{fill:#e8dcdb;}.cls-4{fill:#322f2b;}.cls-5{fill:#ededed;}.cls-6{fill:#3b3834;}.cls-7{fill:#edecec;}.cls-8{fill:#312e2a;}</style></defs><title>badges</title><path class="cls-1" d="M190.33,133.94c0,.71-.37,1.92-1,1.36-3.26-3-3.94.23-5.25,2,.15-2.8-.09-5.44-3.08-6.8-.89-.41-2.58-.79-2.1.59,1.32,3.75-2.11,5.5-3.07,8.2-1.4,3.93-4.76,4.39-8.47,2.28a17.76,17.76,0,0,0-3.7-1.66c-2.3-.68-3.3,1.08-4.28,2.63-1.12,1.8.79,2.24,1.59,3.11s1.6,1.21,2.23,2c1.3,1.54,1.75,3-.7,4-2.8,1.16-4.46,3.43-5.65,6.13-.32.73-.48,2.32-1.36,1.86-3.38-1.82-3.37.51-3.74,2.66a2.19,2.19,0,0,1-.87,1.05c-4.69-2.91-5.84.15-6.66,3.87-.06.25-.69.31-.92.57-2.13,2.35-.73,8.34,2.09,9.06a.78.78,0,0,0,0,.6c-.85,2.56-3.94,2.13-5.31,4-.38-1.38-3.47-3.48,1-3.58.86,0,1-1.3.77-2.19-.34-1.19-.75-2.36-1.2-3.51-.27-.7-.69-1.38-1.57-1.38s-1.23.71-1.44,1.45c-.44,1.58-1,3-2.76,3.65a1.35,1.35,0,0,0-.74,2.12c1.35,2.16,2.48,4.84,5.93,3.3.47,2-.33,2.49-2.08,1.76-2.74-1.15-4.59-1-4.45,2.68,0,.87,0,2.27-1.38,2.12-1.19-.13-2.57-.51-2.46-2.27a3,3,0,0,1,.73-.06c.89.12,2.13.94,2.22-.77.08-1.4.83-3.26-.53-4.13-1.2-.76-1.39,1-1.79,1.74-.58,1.13-2-.45-2.42.7.09,1.34,2,1.17,1.85,2.58a7.57,7.57,0,0,0-5.4,2.09c-8.12,6.75-17.29,9.71-27.81,6.94-1.7-.45-3.8.76-5.13-1.22l.63-.76c5.49.36,11,3,16.49-.11a3.78,3.78,0,0,1,2.2-.11,9.45,9.45,0,0,0,7-2c2.88-2.09,5.63-4.35,8.93-6.91-1.63-.22-2.17-1.88-3.61.35-1.87,2.9-6.33,2.85-8.48,5.86-.14.19-.69.07-1,.11-2.36.27-4.76.34-7.07.84a24.24,24.24,0,0,1-16-1.56,42.68,42.68,0,0,0-11.71-3.33c-.11,0-.37.81-.56,1.25l-1.2,0c-1.35-1.29-2.7-1.32-4.38-.44-4,2.09-4.92,1.67-6.09-2.58-.19-.71-.48-1.15-1.18-1.15-2.11,0-3.62-1.53-5.53-2,0-.35,0-.7,0-1,3.72-1.61,3.73-2.25,1.06-4.77-2.36-2.23-5.62-3.83-6.3-7.45-.42-2.23-1.37-3.68-3.88-3.58-2.09.08-2.37-1.74-2.64-3-.58-2.83,5.61-8.12,8.1-6.78s3,0,3.64-1.74c.5-1.31.65-3,2.66-3.29.7,2.86-1.22,4.95-2,7.32-.69,2.16-1.6,4.28,2.35,3.56,1.37-.25,3.32.07,4.09,1.34,1.75,2.87,3,2,4.24-.25,1.39.91,1.36,2.22,1.49,3.42,1.33,12,9.88,18,19.3,23.35a5.71,5.71,0,0,0,2.52.49c3.47.1,7,.12,10.42.19,9.17.2,14.54-5.84,19-12.44,2.66-3.91,4.09-8.72,5.1-13.49,1.85-8.74,7.3-14.61,15-18.7.64-.34,1.49-.75,1.7-1.32,1.45-3.89,4.62-3.44,7.72-3.25.9.05,2.56.74,2.43-.63-.4-4.43,2.4-2.12,4.15-2.29,1.1-.11,3.55.71,2.93-1.27-1.11-3.56.86-3.73,3.23-4.17,1.18-.21,2.64-.41,2.84-1.94.14-1.11-.8-1.83-1.73-2.17-1.2-.45-2.73-1.68-3.7-.16-1.32,2.08-3.5,2.18-5.36,2.95-2.68,1.1-5.59,2.74-7.11,4.53-2.32,2.73-4.71,3.8-7.78,3.73-6.16-.13-12,.8-17.48,3.76-1.11.6-1.83,1-2-.6-.29-3.89-.42-8,2.75-10.75,4.93-4.28,10.27-8.1,15.47-12.08,1.81-1.39,5.6-2.76,4.55-4.57-1.57-2.7,1.23-4.36.11-6.67-1.19-2.47,1.89-5.73,4.42-4.65,3.7,1.59,5.55-.55,7.56-2.84.58-.66,1.35-1.35.89-2.24a2.28,2.28,0,0,0-2.31-.94c-2,.18-4.34,1.31-5.78.57-3.76-1.93-7.24-.83-10.85-.2a9,9,0,0,1-5.39-.84c-3.77-1.66-15.15,1.62-17.43,4.85-3.73,5.26-3.45,13.45.64,19,.69-2.09.69-2.09.23-3.69-1.47-5.15-1.08-5.15,3.79-7.1,4.25-1.69,9.08-2.24,12.52-5.9,3-3.2,5-2.8,8.26,1.47-3.21-.41-3.64,1.21-3.08,3.67.49,2.17,0,3.81-2.46,4.61-1.07.35-1.9,1.53-2.77,2.39a11.24,11.24,0,0,1-8.62,3.6c-5-.15-5-.12-4.64,5.1.16,2,.66,4.17-2.16,5.39a7.18,7.18,0,0,0,.1-2c-1.74-5.91-6.06-10.63-7.71-16.65-.31-1.11-2.18-2.92-3.77-2.43-2.14.64-1,2.64-.8,4.16.12.95.54,2.15-.66,2.62-1.42.55-1.65-1-2.45-1.61-2.42-1.85-1.48-5.14-3.2-7.65-1.78,2.81-1,5.22-.64,7.64.26,1.65,1.17,3.5-.35,4.93s-1.69,3.54-2.76,4.59c-3.75,3.69-3.82,7.73-3.53,12.6A106.25,106.25,0,0,0,94.9,147.4c.51,3,1.52,5.53-.14,8.38-.58,1,.11,2.36,1.22,1.88,4.88-2.11,8.79.45,12.87,2.29.77.35,2.22.45,1.79,1.83a2.47,2.47,0,0,1-2.29,1.67c-3.58.23-7.17.44-10.76.66-1.33.08-2.24.09-2.2-1.88,0-2.21-1.89-3-3.7-2.45s-4.61-.13-4.85,2.92c-.51,6.46,5,13.24,11.29,13.91a3.27,3.27,0,0,1,2.39.8c1.33,1.51,2.64,1.39,4.21.25s3.46-1.29,5.27-1.69c1.1-.24,2.69-.48,2.9-1.42.93-4.27,4.48-7.27,5.11-11.83.51-3.74,2.49-7.28,4.16-11.87,1.66,4.39,5.53,6.81,4.64,11.09-1,4.71-2.18,9.44-4.68,13.65-1.87,3.15-4.52,5.24-8.39,5.33-7.94.19-15.87.24-23.82,0A10.64,10.64,0,0,1,80.33,175c-1.78-3.25-3.11-6.77-5-9.94-1.54-2.57-1-5.06-.33-7.5.4-1.49,1.8-2.69,2.38-4.17.38-1,1.72-2.61-1.47-2.58-1.32,0-3.31,1.19-4.39-.1s-1.79-3.24-2.65-4.88a10.11,10.11,0,0,0-.57-1c-1-1.48-2.08-1.65-3.16,0-.43.65-.36,1.72-1.47,1.8-.47-1.54,1.19-3.83-1.26-4.51-2-.55-2.78,2.28-4.74,2.41-.31-2.62-2-5.47-2.8-4.95-3.48,2.12-2.94-1.84-4.43-2.62-.14-.08-.5.11-.66.27-1.31,1.27-2.39.2-3.65-.17-2.43-.7-4.62-2.68-6.63-3-3.11-.52-4.21-2.74-5.69-4.38-2.6-2.86-6.16-3.73-8.83-1.17-.56.53-1.52,1.89-.31,1.89,3.21,0,3.59,3.48,6.14,4.43.93.35.1,4.09,2.33,5.5.16.1-1.05,1.57.17,2.1.84.36,1.61-.28,2.36-.77s1.68-2.42,3-.74c3,3.89,8.67,3.19,11.85,6.84.6.69,1.57.4,2.42,0s1.71-.83,2.38,0,.15,2-.38,2.74a15.22,15.22,0,0,1-8.51,6c1.43-2.55-.57-1.59-1.47-1.34-4.14,1.15-6.87,4.48-10.28,6.75l-1.29,0c.35-2.62-1.2-1.53-2-.91-2.49,1.85-4.1,1.37-5-1.57l.94-.75c3.24,4.55,5.27-1.93,8.25-.93,1.12.38,1.84-1,2.44-1.94.32-.48-.25-.84-.35-1.23-.79-2.89-2.13-3.26-4.61-1.58-3.92,2.64-5.39-1.2-7.26-3.26-1.68-1.85.46-3.08,1.55-4.06,1.77-1.6,1.1-3,.22-4.57-1.14-2.07-2.26-.14-3.39,0s-1.88,2.24-3.1-.13c-2.73-5.28-3.79-11.71-9.83-14.85-1.23-.64-.73-1.3-.31-2.68,1.25-4.09,1.54-8.5,2-12.81.11-1.07-1.51-1.08-2.2-1.75v-.74c1.48-.72,3-1.39,2.23-3.56-.34-1,.23-1.89.6-2.82,1.95-5,5.6-9.31,6.67-14.74a3.76,3.76,0,0,1,.62-1.33c3.7-5.43,6.51-11.2,7.26-17.84a8.79,8.79,0,0,1,4.06-6.75l.44.45c-.79,2.47-2.78,4.8-.71,7.6.76,1,1.58,2,2.52.65,1.11-1.58,2.71-2.52,4.06-3.76A66.56,66.56,0,0,1,59.62,52.91c3.37-1.3,7-2.12,10.07-4.4a103.68,103.68,0,0,1,10.13-6.94c4.67-2.7,6.44-6.27,4.71-11.09-.58-1.62-.19-2.33,1.4-2.55a27.78,27.78,0,0,1,9.23.21c2.5.5,3.62,1.66,3.4,4.31-.28,3.47,2.14,6.48,1.34,10.27,1.94-.73,1.48-1.87,1.56-2.76.12-1.17-.29-2.85,1.27-3,1.24-.13,1.28,1.57,1.79,2.5.85,1.56,1.09,4.07,3.49,3.7,3.17-.48,3.95,2.26,5.62,3.67.8.68,1.34,2.68-1.16,2.71a2.7,2.7,0,0,0-2.72,2.13c-1.06,4-2.78,8.09,1.88,11.14a11.55,11.55,0,0,1,1.76,1.8v.06c-3.34,2.43-3.42,3.14-.25,5.48a3.45,3.45,0,0,1,1.6,3.11c0,1.73.12,3.47,0,5.2-.08,1.92-.06,3.56,2.66,3,1.39-.28,2.11.44,2,1.88-.16,2.7,1.08,2.61,3.24,2,5.7-1.58,11.1.77,14.77,4.25,2.68,2.55,4.08,3,6.81,1.4.41-.24.81-.42,1.25.11,2.28,2.75,4.81,3,7.55.65a3.15,3.15,0,0,1,4.12-.13,10.7,10.7,0,0,0,7.62,2.11,4.69,4.69,0,0,1,5.08,2.38c.92,1.88,2.33,1.43,3.71.58s2.66-1.81,4.06-2.59a2,2,0,0,1,2.45.15c.85.81.33,1.57-.38,2.18-1.35,1.17-.73,2.23.26,3.12a14.79,14.79,0,0,1,3.8,5.48c.73,1.69.2,4.43,2.51,5.47-2.11,1.86-1.29,3.2.76,4.33-1.17.61-2.14,1.49-1.74,2.89s1.72,1.64,3,1.63c.74,0,1.48-.09,2.22-.13.91,0,1-1,1.66-1.32.7.72,2.8,1.48,0,2.12-1.3.29-2.62.49-3.93.68-1.48.22-1,1-.5,1.73l-.73.68c-2.56-.46-2.82,1.2-2.93,3.1-.15,2.43.72,4.61,2.73,5.69s1.91-1.63,2.93-2.44a1.12,1.12,0,0,0,.52.49l-.09,1.8C190.26,132.47,190.29,133.2,190.33,133.94ZM42.66,73.17l-.07,1C39.39,72.39,39,75.31,37.65,77c-1.54,1.88-5,3.81-4.74,5.19.46,2.51,3.05,4.63,4.74,6.92l.24.28c1.59,2.07,1.31,3.72-1.27,4.47-1.33.39-1.95,1.05-.92,2,3.06,2.69.47,3.2-1.4,4.07a2.61,2.61,0,0,0-1.83,2.54c.11,1.2,1.32,1.24,2.28,1.49,1.18.31,2.55.29,3.42,1.27,1.45,1.64,2.79,1.44,4.56.39,3.27-1.93,6.53-.09,6.8,3.74a22.38,22.38,0,0,1-.43,4c-.23,2,0,3.64,1.87,4.86s2.13-1,3.21-1.36c1.8-.63,4-1.93,5.54-.35,1.92,2-1.16,2.34-1.76,3.57-.32.63-1.12,1.14-.68,1.94s1.38.86,2.29.72c1.34-.2,2-1.33,3-2l.55.56c-1.05,3,1.13,3.23,3.14,3.59,6,1.09,10.12,4.16,11.7,10.39,1.09,4.31,2.82,8.46,4,12.75.67,2.46,2.79,1.84,4.17,2.07s1-1.65,1.13-2.69a37.68,37.68,0,0,0,.56-5.16c0-2,0-4.2-2.58-5.29-.42,2.29-.8,4.38-1.25,6.86a10.25,10.25,0,0,1-.87-6.22,75,75,0,0,0,.51-11.41c0-3.21-1.1-4.89-4.15-6-5.51-2.1-11.43-3.23-16.25-7.05-1.85-1.46-2.58-4-5-4.79-2.88-1-3.11-2.09-.74-4.06a34.47,34.47,0,0,1,4.44-2.65c2.37-1.43,4-.53,5.14,1.66,2.77,5.06,7.43,7.17,12.81,7.89,2,.26,2.86,1.13,3.83,2.82,1.25,2.19.67,4.66,1.75,7.68,2.23-4.23,4.29-7.88,2.6-11.8s-1.65-9.66-8-9.95a3.35,3.35,0,0,1-1.34-.63c-8-4.69-15.65-1.76-22.92,1.85-2.18,1.09-3.76,2-6.05.91-3.63-1.7-4.49-2.62-4.77-5.35a.91.91,0,0,0-.46-.55c-2.75-1.58-2.24-4.67-3.61-7.29,2.9.72,5.21.76,5.85,4.55.39,2.36.14,6.4,4.81,6.81,3.14.28,3.71-2.29,5.37-3.16,4.54-2.37,7.59-6.3,11.64-9.07,5.09-3.48,13-3.53,17.91.08a3.51,3.51,0,0,1,1.22,1.8c1.12,4.39,3.76,8.39,3.45,13.16-.07,1.09,0,1.64,1.62,1.52,4.65-.35,9.63-2.34,13.7-1.48,6.21,1.3,5.84-1.43,6.51-5.59.42-2.62,2.75-4.91,4.05-7.43,1.82-3.52,1.23-4.49-2.58-4.17-2.61.22-3.8-.47-3.23-3.28.25-1.22.24-2.77-1-3.34-2.64-1.22-1.42-2.58-.37-3.95,1.58-2.08,1.29-3.55-1.18-4.6-1.26-.54-3-1.47-2.66-2.75.94-3.15-1.07-5.54-1.69-8.2s-1.5-5.39-1.32-8.27c.09-1.31-.46-2.77-1.71-3-1.59-.31-1.71,1.39-2.09,2.51-.5,1.51-1.71,2.9-2.07,4.17-.87,3.12-4.24,5.94-3,9,1.6,3.92-.69,5.77-2.75,7.69-1.44,1.35-1.78,2.73-.71,3.76,3.07,3,.62,4.86-1,7-.61.81-1.26,1.58-2.38,1.5a1.08,1.08,0,0,1-.78-.64c-.34-1.37.94-1.54,1.68-2,2.61-1.78,2.1-3-.6-4-.82-.29-2.17-1-1.72-1.58,2-2.67,1.56-6.55,2.94-8.61a14.18,14.18,0,0,0,2.41-9.86c-.38-3.4.52-5,3.27-6.48,3.46-1.87,4.41-7.75,2-10.8-1.12-1.43-2.66-2.63-2.15-4.85.33-1.47,1.31-3.52-.83-4.14-1.83-.53-2.7,1.47-3.48,2.81A11.24,11.24,0,0,0,89,37.44c-.39,2-.39,4.18-3.47,3.54-.91-.19-1.49.41-1.1,1.32,1.65,3.8-1.6,3.59-3.46,3.85a12.65,12.65,0,0,0-6.35,2.4,54.48,54.48,0,0,1-9.45,5.35c-2.55,1.22-4.46,1.57-3.46,5.07-1.63-.85-2.79-1.57-4-2.09-1-.41-2-.05-1.43,1.14.95,2-.11,1.92-1.42,2.93-1.12.87-4.23.21-3.59,3.07.19.86,1.76,1.54.67,2.51-1.29,1.15-2.24-.25-3.22-.87-.74-.48-1.54-1.11-2.38-.62-1,.62-.15,1.55-.06,2.33.14,1.17.39,1.92-1.46,2.16C43.48,69.69,42.42,71.4,42.66,73.17ZM27.89,117.45c-.16-1.68-.28-4.32-1.73-5.15-1.78-1-1.73-1.54-.91-2.94.5-.85,1-2-.09-2.65a2.36,2.36,0,0,0-3,.78c-1.36,1.56-2,3.72-4,4.79-.19.1-.22.92-.18.93,3.65,1.07,2.67,3.2,1.33,5.48a1,1,0,0,0,.42.91c2.26.74,1.26,2.17.85,3.54-.28.93-.22,1.81,1.13,1.61S27.81,119.17,27.89,117.45Zm40.6,62.68a14,14,0,0,1,.22-1.58c.36-1.46.46-2.92-1.5-3.05-2.84-.19-3.4,2-3.72,4.15s1.18,1.74,2.38,1.53c1.94-.32,2.69.53,2,2.27-1.42,3.71,1,3,2.94,2.57,1.74-.42,3.39-1.25,3.09-3.51s-2.11-2.38-3.93-2.29C69.53,180.24,69.05,180.16,68.49,180.13ZM31.71,98.24c.72-.07,1.95-.38,1.45-1.38C32,94.6,31.21,92,28.57,90.8c-3-1.32-1.32,3.22-3.69,2.89-.64-.09-1.11,1-.77,1.76a1.88,1.88,0,0,0,1,.94C27.26,97,29.41,97.6,31.71,98.24Zm-5.79.54c-2.62,0-4.29.32-4.15,3.4.08,1.63.59,2,1.81,2,2.46-.13,3.82-1.85,4.3-4C28.25,98.57,26.56,98.93,25.92,98.78Zm62.6,34.37c-.57-1.79.34-4.71-1.85-5.37-1.57-.47-1.48,2-1.48,3.36,0,1.84.23,3.93,2.29,4.41C88.67,135.82,88.4,134.18,88.52,133.15Zm92.26-14.43c-.59-1.47-1.91-1.88-3.26-2-.93-.11-1.91.38-1.68,1.44.33,1.56,1.69,2,3.14,2C179.92,120.18,180.67,119.85,180.78,118.72Zm-10.14,4c-.95-.15-1.63.24-1.53,1.09a3.57,3.57,0,0,0,2.64,3.11c.83.24,1.4-.51,1.45-1.27C173.32,123.89,172,123.25,170.64,122.77ZM75,145.87c-.08-1.17-.44-2.24-1.66-2.57-.9-.24-1.37.55-1.39,1.3a2.61,2.61,0,0,0,1.93,2.79C75,147.65,74.73,146.47,75,145.87ZM175.5,101.62c-.68.37-1.85.37-2,1.55s.84,1.28,1.66,1.4c1.08.16,2-.15,2.18-1.36S176.54,101.88,175.5,101.62Z"/><path class="cls-2" d="M113.39,64.59a11.55,11.55,0,0,0-1.76-1.8c-4.66-3-2.94-7.17-1.88-11.14a2.7,2.7,0,0,1,2.72-2.13c2.5,0,2-2,1.16-2.71-1.67-1.41-2.45-4.15-5.62-3.67-2.4.37-2.64-2.14-3.49-3.7-.51-.93-.55-2.63-1.79-2.5-1.56.17-1.15,1.85-1.27,3-.08.89.38,2-1.56,2.76.8-3.79-1.62-6.8-1.34-10.27.22-2.65-.9-3.81-3.4-4.31a27.78,27.78,0,0,0-9.23-.21c-1.59.22-2,.93-1.4,2.55,1.73,4.82,0,8.39-4.71,11.09a103.68,103.68,0,0,0-10.13,6.94c-3,2.28-6.7,3.1-10.07,4.4A66.56,66.56,0,0,0,38.38,66.05c-1.35,1.24-3,2.18-4.06,3.76-.94,1.35-1.76.37-2.52-.65-2.07-2.8-.08-5.13.71-7.6.3-.28.44-.59,0-.87,0,0-.31.27-.47.42A8.79,8.79,0,0,0,28,67.86c-.75,6.64-3.56,12.41-7.26,17.84A3.76,3.76,0,0,0,20.13,87c-1.07,5.43-4.72,9.7-6.67,14.74-.37.93-.94,1.83-.6,2.82.73,2.17-.75,2.84-2.23,3.56-2.88-.79-4.2-2-3.23-5.53.88-3.24,2.93-5.93,3.54-9.27.25-1.39-.35-1.35-1.06-1.67C9.75,90,12,90.31,12.17,88.85c3.18-.58,1.79-3,1.65-4.64-.2-2.41-.38-4.39,2.8-4.86,1.34-.2,2.91-1.2,2.93-2.54.06-3.59,2.28-6.16,3.88-8.92,2.56-4.43,3.22-10,6.82-13.58,4.28-4.24,4.79-8.5,3.16-13.86-2.7-8.9-2.28-17.87.34-26.75.59-2,.85-4.17,3-5.3-.41,3.22-.83,6.44-1.24,9.67A64.82,64.82,0,0,0,35.36,34a38.67,38.67,0,0,0,6.08,16.59c.67,1.08,1.86,2.58,3.25,1.61,1.16-.81-.26-2-.76-2.86-5.55-9.7-8.65-20-7.33-31.26A38.46,38.46,0,0,0,38,12.7c.29-2.31,1.44-2,2.69-1.08a9.65,9.65,0,0,1,2.12,2.53c2,3.09,2.35,7.27,6.15,9.29.9.47,1.06,1.88,1.14,3,.14,1.83,1.32,2.44,3,2.61,1.33.13,3.58-1,3.54,1.58,0,1.79,1.87,2.57,1.64,4.33a3.09,3.09,0,0,1-1.65,2.3c-.85.55-2.15.39-2.67,1.59,2.11.82,4.84-.32,6.31,1.58,1.1,1.41,1.59,3,3.87,2.55,1.68-.37,3.51-.25,5.1-.83,2.31-.85,4.23-5.21,3.07-6.49-10-11.13-21.07-21-34.88-27.31.44-1.07,1.43-.81,2.24-.86,5.73-.32,10.69,1.93,15.29,5,6.09,4,12,8.31,18,12.45,1.54,1.06,3,2.9,5,.39.32-.42,1.41-.16,2.08-.4,3.49-1.27,7.25-1.24,10.82-2.27,2.1-.61,5.1-1.4,6.85,1.07,1.34,1.89,2.69,2.44,4.67,1.36,5.51-3,11.49.57,17.1-1.21.31-.1.8.54,1.25.69,4.49,1.43,8.85,1.73,13.16-.82,10.45-6.17,20.42-13.16,31.44-18.33,5-2.34,7.76-.7,8.24,4.83.66,7.64-.81,15-2.47,22.43-.75,3.34-4.41,6.86-.41,10.47-1.1,3.23,1.1,6.32.26,9.68-.48,1.93-.5,3-2.82,2.23-1.49-.53-2.21.48-2.66,1.74l-.36.43h.3l0-.48c4.2.59,4.2.59,1.35,5.51,2.56-1.88,4.06-2.06,6.4-.31,2,1.5,2.18,2.12,1.43,4.15-.49,1.32,1,1.66,2.08,1.91l-.07,0a1.4,1.4,0,0,0,1.57.79l-.08-.06c1.7,1.7,4.22,2.89,3.72,6l0-.06c-.94-.57-1.06.41-1.51.78-2.1.61-5,3.93-5.34-1.57,0-.53-1.09-.93-1.56-1.49-2.31-2.77-5.92-3.51-8.64-5.59-1.17-.89-2.29-1.78-3.6-1-1.55,1-.14,2.21.22,3.21.78,2.13,1,3.84-1.79,4.54a3.06,3.06,0,0,0-1.38,1.19c-.59.79-1.31,1.86-.39,2.62a4.13,4.13,0,0,0,2.78.59c1.36-.13.89-1.06.6-1.93-.48-1.43.66-1.65,1.62-1.88,2.79-.66,4.93,1.4,4.72,4.53s1.89,6.88,4.71,7.13c4.28.39,2.31,2.13,1.23,3.9-.39.66-1.57.89-.77,3,2.78-4,7-1.48,10.45-3,1.18-.51,3-1,3.62,1.14.45,1.64,1.68,3.51-1,4.51-1.06.29-2.4.4-2.38,1.83,0,.94.54,2.24,1.67,2.08,4.25-.6,3.38,2.15,3.27,4.58a12.23,12.23,0,0,0,.23,4.06c.69,2.37-.3,2.88-2.35,2.61-2.31-1-1.78-3.78-2.51-5.47a14.79,14.79,0,0,0-3.8-5.48c-1-.89-1.61-2-.26-3.12.71-.61,1.23-1.37.38-2.18a2,2,0,0,0-2.45-.15c-1.4.78-2.69,1.75-4.06,2.59s-2.79,1.3-3.71-.58a4.69,4.69,0,0,0-5.08-2.38,10.7,10.7,0,0,1-7.62-2.11,3.15,3.15,0,0,0-4.12.13c-2.74,2.32-5.27,2.1-7.55-.65-.44-.53-.84-.35-1.25-.11-2.73,1.56-4.13,1.15-6.81-1.4-3.67-3.48-9.07-5.83-14.77-4.25-2.16.61-3.4.7-3.24-2,.08-1.44-.64-2.16-2-1.88-2.72.55-2.74-1.09-2.66-3,.07-1.73-.08-3.47,0-5.2a3.45,3.45,0,0,0-1.6-3.11c-3.17-2.34-3.09-3,.25-5.48.32.64.75,1.71,1.38,1.4,1.45-.72,1-2.27.93-3.56,0-.44-.1-1.05-.73-1.08-1.2,0-1.19.94-1.36,1.74C113.52,63.63,113.47,64.11,113.39,64.59ZM147.66,74.7c-2.26.88-4.46,1.8-2.16,5-.87-2.43,2-3.06,2.1-5l.93-.13c-.09-.16-.17-.43-.29-.45C147.76,74,147.66,74.3,147.66,74.7Zm23-64.8c-.26-2.68-1.2-3.12-3.44-1.36-8.09,6.33-16.72,11.92-25.24,17.64q-3.7,2.47-7.22,5.2c-.77.59-2.2,2-.91,2.54,2.78,1.1,3.49,4.41,6.36,5.21,1.22.34,2.31,2.17,3.53,1.16,1-.83-.14-2.27-.53-3.42-1.08-3.24-.58-3.74,3.09-3.35,1.35.14,3.31.92,3.42-1.41s1.51-2.15,3-1.95c1.23.16,2.41,1.07,4.05.15-2.58-1.86-5.85-1-8.26-3.19,2.67-2.17,6.29-1.31,8.95-4.78,3.06-4,8.39-6.39,10.44-11.69.32-.83,1.17-.78,1.93-.71,1,5,.18,9.85-1.07,14.67-2,7.86-5.9,14.91-10,21.83-.73,1.24-1.47,2.7.06,3.57s1.94-1,2.49-1.92a78.21,78.21,0,0,0,8.76-20.37C171.64,21.89,172.91,15.92,170.68,9.9ZM150.08,72a5.69,5.69,0,0,1,1.65-.69c5.26-.34,5.34-.46,3.06-5.18a16,16,0,0,1-.86-1.64c-.31-.85.25-1.36.9-1.8a1.43,1.43,0,0,1,2,.08c.62.6.48,1.72,1.5,2.09,2.37-1.39,3.13-3.7,3.5-6.31-2-.6-4.15.3-6.19-.63s-3.12-3.07-5.08-3.65c-8.25-2.46-15.15-7.88-23.43-10.35-6.85-2-9.83-6.86-9.65-14,0-1.71-1.27-1.9-2.27-1.62-3.17.9-6.28-.3-9.48-.05-4.29.33-5,.72-3.17,4.82.73.07,1.1-.44,1.55-.88,1.12-1.1,2.08-2.69,4-2s2.51,2.6,2.86,4.45-.09,3.71.9,5.82c1.43-1.49,2.94-2.5,4.07.14.11.26,1,.47,1.34.33,2.86-1.16,3.48,1.09,3.47,2.78,0,3.47,4.19,3.5,4.7,6.44.1.58,1.08,0,1.59-.3.73-.41,1.57-.52,1.94.26.82,1.74,1.94,1.49,3.28.79.59-.3,1.42-.35,1.57.35.48,2.19,2.38,1.9,3.78,2.16,5.32,1,5.36,1,4.64,6.34,1.39.14,2.24-.9,3.29-1.45,3.23-1.7,6-.31,6.37,3.3a3.14,3.14,0,0,1-1.37,3.25c-1.4.76-1.45-.84-1.95-1.54s-1.15-1.24-2.17-.83-1.07,1.18-.56,2.06c.79,1.39-.82,2.29-1,3.5a7.49,7.49,0,0,0,1,.13c4.89-.19,4.89-.2,4.26,3.91-.23-.07-.56-.54-.62.14ZM114.89,51.68c-.21,1.53,0,2.83,1.34,3,2.25.24.53-1.54.92-2.32a16.71,16.71,0,0,0,.8-2.45c.28-.86,1.21-1.86-.52-2.26-1.28-.3-1.81.21-1.93,1.49A18,18,0,0,1,114.89,51.68Zm17.74,24.76c1,.92,1.73-.4,2.7-.33a24.19,24.19,0,0,1,3.28.21c.38.08.9-.27,1.26-.55.1-.06-.05-.69-.25-.87C138.67,74.05,133.57,75.2,132.63,76.44Zm-7.28.91c1.76-1.56,3.25-3.26,3.38-5.69C127.34,73.42,125.23,74.74,125.35,77.35Zm-5.19-13c-2.72,2.51-1.24,3.69.93,5.35C120.75,67.72,120.52,66.36,120.16,64.31Zm25.38,25.55.26.45c.08-.08.23-.17.22-.23a2.27,2.27,0,0,0-.23-.47Z"/><path class="cls-3" d="M36.72,8.4c-2.12,1.13-2.38,3.32-3,5.3-2.62,8.88-3,17.85-.34,26.75,1.63,5.36,1.12,9.62-3.16,13.86-3.6,3.57-4.26,9.15-6.82,13.58-1.6,2.76-3.82,5.33-3.88,8.92,0,1.34-1.59,2.34-2.93,2.54-3.18.47-3,2.45-2.8,4.86.14,1.65,1.53,4.06-1.65,4.64.18-1.07.73-2.25.47-3.2-1.16-4.24-.51-7.26,4.49-8a1.8,1.8,0,0,0,1.18-1.28c-.25-6.64,5.68-10.65,7-16.53,1.1-4.79,4.57-7.89,7.47-11.4,1.1-1.32.22-2.36-.08-3.43a59.54,59.54,0,0,1-.41-31.59c1.39-5.54,3.79-7.33,9.48-7.48C46.72,5.8,51,7.61,55,10.21c5.63,3.62,10.81,7.88,16.17,11.85C75,24.9,78.48,24.43,82,23.23c3.26-1.11,6.7-1.7,10-2.47,1.76-.42,6.09-2.14,7.44,2.31.47,1.55,2,1.23,3.19.74,4.24-1.75,8.51-2.32,12.91-.61,2.08.81,3.85-2.2,6.2-.36s5.24.61,7.82,1.24c1.43.35,2.31-.72,3.32-1.32,10.44-6.19,20.49-13,31.43-18.39A9.64,9.64,0,0,1,168.83,3c3.26.11,5.28,1.33,5.82,4.9C176,17.23,174,26.13,171.73,35a15.15,15.15,0,0,0-.14,7.11c.89,4.45,1.95,9.53-.12,14.21-.61,1.39-.34,2.8.95,3.13,4.86,1.24,4.49,4.88,4.28,8.53-1.09-.25-2.57-.59-2.08-1.91.75-2,.58-2.65-1.43-4.15-2.34-1.75-3.84-1.57-6.4.31,2.85-4.92,2.85-4.92-1.35-5.51l.09.05c.45-1.26,1.17-2.27,2.66-1.74,2.32.82,2.34-.3,2.82-2.23.84-3.36-1.36-6.45-.26-9.68-4-3.61-.34-7.13.41-10.47,1.66-7.42,3.13-14.79,2.47-22.43-.48-5.53-3.26-7.17-8.24-4.83-11,5.17-21,12.16-31.44,18.33-4.31,2.55-8.67,2.25-13.16.82-.45-.15-.94-.79-1.25-.69-5.61,1.78-11.59-1.79-17.1,1.21-2,1.08-3.33.53-4.67-1.36C96,21.27,93,22.06,90.92,22.67c-3.57,1-7.33,1-10.82,2.27-.67.24-1.76,0-2.08.4-2,2.51-3.45.67-5-.39-6-4.14-11.94-8.42-18-12.45-4.6-3-9.56-5.29-15.29-5-.81,0-1.8-.21-2.24.86Z"/><path class="cls-4" d="M145.41,176.84c-2.82-.72-4.22-6.71-2.09-9.06.23-.26.86-.32.92-.57.82-3.72,2-6.78,6.66-3.87a2.19,2.19,0,0,0,.87-1.05c.37-2.15.36-4.48,3.74-2.66.88.46,1-1.13,1.36-1.86,1.19-2.7,2.85-5,5.65-6.13,2.45-1,2-2.49.7-4-.63-.75-1.57-1.23-2.23-2s-2.71-1.31-1.59-3.11c1-1.55,2-3.31,4.28-2.63a17.76,17.76,0,0,1,3.7,1.66c3.71,2.11,7.07,1.65,8.47-2.28,1-2.7,4.39-4.45,3.07-8.2-.48-1.38,1.21-1,2.1-.59,3,1.36,3.23,4,3.08,6.8,0,.5,0,1-.07,1.51-1.31,1.1-.45,2.74-1,4s-1,2.41-2.58,1.25c-3.35-2.4-3.27-.26-3,2.24a28.21,28.21,0,0,1,0,2.91c-.14.21-.27.42-.4.64-4.42,0-7.91-2.35-11.4-4.63l-.78-.72-.8-.68c-.22-.19-.56-.56-.62-.52-.59.39,0,.69.14,1s.51.59.77.89l.61.56a7,7,0,0,0,1.05,1c3.58,2.31,2.38,5.4,1.56,8.56-.79,3-2.48,4-5.44,3.36-1.12-.23-2,.36-1.49,1.75,1.25,3.36-1.37,2.74-3.16,2.81,1.18,4.15.89,5-.71,4.31-3.67-1.59-4.06,4.22-7.36,2.92C150.05,173.91,146.48,174.56,145.41,176.84Z"/><path class="cls-5" d="M185.9,95.33c2.64-1,1.41-2.87,1-4.51-.59-2.16-2.44-1.65-3.62-1.14-3.48,1.51-7.67-1.05-10.45,3-.8-2.09.38-2.32.77-3,1.08-1.77,3.05-3.51-1.23-3.9-2.82-.25-4.92-4-4.71-7.13s-1.93-5.19-4.72-4.53c-1,.23-2.1.45-1.62,1.88.29.87.76,1.8-.6,1.93a4.13,4.13,0,0,1-2.78-.59c-.92-.76-.2-1.83.39-2.62a3.06,3.06,0,0,1,1.38-1.19c2.81-.7,2.57-2.41,1.79-4.54-.36-1-1.77-2.23-.22-3.21,1.31-.82,2.43.07,3.6,1,2.72,2.08,6.33,2.82,8.64,5.59.47.56,1.53,1,1.56,1.49.38,5.5,3.24,2.18,5.34,1.57l.91.06a1.56,1.56,0,0,0,1.05,1.34,8,8,0,0,1,4.6,8.6c-.56,2.65,1.34,4.32,2.08,6.28,1,2.56.3,3.24-1.71,3.95Zm-4.73-17.57c-3.64,0-4.95,1.91-3.73,4.9.9,2.23,1.3,4.92,4.79,3.16.45-.22,1.14,0,1.05.56-.17,1.1.05,1.71,1.26,1.56,1.49-.18,1-1.43,1.16-2.31.44-2.09.47-3.94-2.27-4.48-.49-.09-1.78-.29-1-1.34C184.42,77.15,181.61,78.28,181.17,77.76Z"/><path class="cls-3" d="M9.88,91.68c.71.32,1.31.28,1.06,1.67-.61,3.34-2.66,6-3.54,9.27-1,3.5.35,4.74,3.23,5.53v.74c-1.7.26-5.25-1.27-4.53,1.5.84,3.21-.83,5.54-.8,8.3,0,4.21-.16,8.51,3.22,11.64,1.23,1.14,1.29,1.94.63,3.13-1.33,2.38-.63,3.57,2,4.11,2.44.49,4,1.86,3.25,4.74a2.93,2.93,0,0,0,.23,2.8c5.49-1.54,5.49-1.54,8.59-.75a5,5,0,0,1-2.78,3.24c-3.71,2.16.8,4.21-.09,6.27-.23.54-.09,1.69.41,1.6,3-.57,4.41,2,6.46,3.23l-.94.75c-1.21,0-2.88.91-3-1.45a1.74,1.74,0,0,0-.43-.94c-3.8.94-3.1-2.32-4.48-4-2.24-2.73,0-3.76.48-5.49a6.68,6.68,0,0,1,.89-1.54c-.28-.22-.48-.49-.62-.46-2,.38-4.55,1.7-6,.95s0-3.59-.22-5.51c-.19-2.11-2.07-1.92-3.35-2.2-2.56-.56-3.87-1.47-2.36-4.25a2.78,2.78,0,0,0-.5-3.68c-4.41-4.36-3.24-10-2.65-15.1.57-4.82.57-9.82,2.16-14.46C7.38,98.07,8,94.63,9.88,91.68Z"/><path class="cls-3" d="M59.79,179.83c0,.35,0,.7,0,1a21.38,21.38,0,0,0-2.52.57C53,183,53,183,52.74,178.34c-.11-2.11-1.33-2.34-3-2.3-1.82.05-4,.53-3.23-2.71.26-1.09-.69-1.09-1.45-.77s-1.32.24-1.47-.49c-.61-2.86-2.5-2.08-4.33-1.65-.88.21-2,1.07-2.61-.1-.49-1,.59-1.75,1.16-2.55s2-1.53,1.56-3.42c-1.77.57-3.46,1.2-5.19,1.66-.85.22-1.88,1.27-2.63.11-.58-.91.06-1.92.62-2.75A17.28,17.28,0,0,1,33.36,162l.54.74c1.42,2.71,3.06.49,4.52.12,2.17-.56,3.23-3.19,5.74-3.25-1.47,2.91-2.94,5.82-4.74,9.4,3.48-2.27,5.64,3.29,9,.46.49-.41.91.88.47,1.58-2.15,3.46,0,4.05,2.74,4,2.62-.09,3.4.89,2.46,3.33a3,3,0,0,0,0,2.57A9.56,9.56,0,0,1,59.79,179.83Z"/><path class="cls-3" d="M145.41,176.84c1.07-2.28,4.64-2.93,4-6.28,3.3,1.3,3.69-4.51,7.36-2.92,1.6.69,1.89-.16.71-4.31,1.79-.07,4.41.55,3.16-2.81-.51-1.39.37-2,1.49-1.75,3,.6,4.65-.35,5.44-3.36.82-3.16,2-6.25-1.56-8.56a7,7,0,0,1-1.05-1l.68-.54c3.49,2.28,7,4.59,11.4,4.63-1,2.48-2.8,1.07-4.06.61-2.85-1-3.6.29-3.69,2.71,0,.87,0,1.74,0,2.61.09,2.94-.83,4.86-4.26,4.49-2.32-.25-3.64.47-2.87,3.16.32,1.12.47,2.4-1.5,1.83-.81-.23-1.1.37-1.18,1-.26,2.17-.74,4-3.62,2.7a1.33,1.33,0,0,0-1,.17c-.5,3.35-5.39,2.8-5.63,6.52-.17,2.42-3,.2-3.84,1.72A.78.78,0,0,1,145.41,176.84Z"/><path class="cls-3" d="M185.9,95.33l1.41.3c-.52.5-1.48,1-1.46,1.51.08,1.28,1.3.83,2,.76,2.78-.29,3,.9,2.4,3.26-.74,2.73-1.25,5.58.52,8.2a1.56,1.56,0,0,1-.34,2.27c-.85.78-.85,1.61.21,2,2.31.84,1.57,2.67,1.59,4.27-.64.33-.75,1.33-1.66,1.32.83-3-.35-4.5-3.49-4.39-2-1.13-2.87-2.47-.76-4.33,2,.27,3-.24,2.35-2.61a12.23,12.23,0,0,1-.23-4.06c.11-2.43,1-5.18-3.27-4.58-1.13.16-1.66-1.14-1.67-2.08C183.5,95.73,184.84,95.62,185.9,95.33Z"/><path class="cls-6" d="M140.12,181.3c-3.45,1.54-4.58-1.14-5.93-3.3a1.35,1.35,0,0,1,.74-2.12c1.8-.63,2.32-2.07,2.76-3.65.21-.74.53-1.46,1.44-1.45s1.3.68,1.57,1.38c.45,1.15.86,2.32,1.2,3.51.26.89.09,2.17-.77,2.19-4.5.1-1.41,2.2-1,3.58Z"/><path class="cls-7" d="M177.48,149.25a28.21,28.21,0,0,0,0-2.91c-.26-2.5-.34-4.64,3-2.24,1.62,1.16,2.06-.06,2.58-1.25s-.3-2.94,1-4c.12,1.35.34,2.69.33,4,0,3.53-1.14,4.22-4.49,2.72C179.86,147.33,179.22,148.68,177.48,149.25Z"/><path class="cls-3" d="M77,187.09l1.2,0,12.21,4.77-.07,1c-4.13-.09-7.49-2.86-11.54-3.33A2.21,2.21,0,0,1,77,187.09Z"/><path class="cls-3" d="M181.84,74.68c.5-3.08-2-4.27-3.72-6,2.44.21,4.18,1.16,5,3.73C183.67,74,183,74.35,181.84,74.68Z"/><path class="cls-3" d="M187.07,123.1l.73-.68c1.57,2.26,5.26,3.81,2.52,7.52a1.12,1.12,0,0,1-.52-.49C190.37,126.7,188.19,125.13,187.07,123.1Z"/><path class="cls-3" d="M178.2,68.77a1.4,1.4,0,0,1-1.57-.79C177.53,67.5,178,67.81,178.2,68.77Z"/><path class="cls-3" d="M181.29,75.46l-.91-.06c.45-.37.57-1.35,1.51-.78A.68.68,0,0,1,181.29,75.46Z"/><path class="cls-3" d="M190.33,133.94c0-.74-.07-1.47-.1-2.2A1.8,1.8,0,0,1,190.33,133.94Z"/><path class="cls-1" d="M90.33,192.88c0-.33,0-.66.07-1l1.7.82-.63.76Z"/><path class="cls-3" d="M33.37,161.93l1.29,0-.76.79-.54-.74Z"/><path class="cls-8" d="M62.62,120.72c-1,.65-1.71,1.78-3,2-.91.14-1.8.16-2.29-.72s.36-1.31.68-1.94c.6-1.23,3.68-1.61,1.76-3.57-1.55-1.58-3.74-.28-5.54.35-1.08.37-1.26,2.65-3.21,1.36s-2.1-2.91-1.87-4.86a22.38,22.38,0,0,0,.43-4c-.27-3.83-3.53-5.67-6.8-3.74-1.77,1-3.11,1.25-4.56-.39-.87-1-2.24-1-3.42-1.27-1-.25-2.17-.29-2.28-1.49a2.61,2.61,0,0,1,1.83-2.54c1.87-.87,4.46-1.38,1.4-4.07-1-.9-.41-1.56.92-2,2.58-.75,2.86-2.4,1.27-4.47l-.24-.28c-1.69-2.29-4.28-4.41-4.74-6.92-.25-1.38,3.2-3.31,4.74-5.19,1.33-1.65,1.74-4.57,4.94-2.82a7.81,7.81,0,0,0,3.31,2.28,2.34,2.34,0,0,0,3.35-1.86c.25-1.45-1-1.81-2.4-2.09-1.59-.3-2.75.88-4.19.7-.24-1.77.82-3.48,2.09-3.64,1.85-.24,1.6-1,1.46-2.16-.09-.78-1-1.71.06-2.33.84-.49,1.64.14,2.38.62,1,.62,1.93,2,3.22.87,1.09-1-.48-1.65-.67-2.51-.64-2.86,2.47-2.2,3.59-3.07,1.31-1,2.37-1,1.42-2.93-.57-1.19.45-1.55,1.43-1.14,1.24.52,2.4,1.24,4,2.09-1-3.5.91-3.85,3.46-5.07a54.48,54.48,0,0,0,9.45-5.35,12.65,12.65,0,0,1,6.35-2.4c1.86-.26,5.11,0,3.46-3.85-.39-.91.19-1.51,1.1-1.32,3.08.64,3.08-1.56,3.47-3.54A11.24,11.24,0,0,1,90.08,34c.78-1.34,1.65-3.34,3.48-2.81,2.14.62,1.16,2.67.83,4.14-.51,2.22,1,3.42,2.15,4.85,2.39,3,1.44,8.93-2,10.8-2.75,1.48-3.65,3.08-3.27,6.48a14.18,14.18,0,0,1-2.41,9.86c-1.38,2.06-.89,5.94-2.94,8.61-.45.59.9,1.29,1.72,1.58,2.7,1,3.21,2.18.6,4-.74.51-2,.68-1.68,2a1.08,1.08,0,0,0,.78.64c1.12.08,1.77-.69,2.38-1.5,1.58-2.16,4-4,1-7-1.07-1-.73-2.41.71-3.76,2.06-1.92,4.35-3.77,2.75-7.69-1.26-3.09,2.11-5.91,3-9,.36-1.27,1.57-2.66,2.07-4.17.38-1.12.5-2.82,2.09-2.51,1.25.24,1.8,1.7,1.71,3-.18,2.88.67,5.51,1.32,8.27s2.63,5.05,1.69,8.2c-.38,1.28,1.4,2.21,2.66,2.75,2.47,1,2.76,2.52,1.18,4.6-1,1.37-2.27,2.73.37,3.95,1.25.57,1.26,2.12,1,3.34-.57,2.81.62,3.5,3.23,3.28,3.81-.32,4.4.65,2.58,4.17-1.3,2.52-3.63,4.81-4.05,7.43-.67,4.16-.3,6.89-6.51,5.59-4.07-.86-9,1.13-13.7,1.48-1.61.12-1.69-.43-1.62-1.52.31-4.77-2.33-8.77-3.45-13.16A3.51,3.51,0,0,0,86.46,88c-4.93-3.61-12.82-3.56-17.91-.08-4,2.77-7.1,6.7-11.64,9.07-1.66.87-2.23,3.44-5.37,3.16-4.67-.41-4.42-4.45-4.81-6.81-.64-3.79-2.95-3.83-5.85-4.55,1.37,2.62.86,5.71,3.61,7.29a.91.91,0,0,1,.46.55c.28,2.73,1.14,3.65,4.77,5.35,2.29,1.08,3.87.18,6.05-.91,7.27-3.61,14.87-6.54,22.92-1.85a3.35,3.35,0,0,0,1.34.63c6.39.29,6.35,6,8,9.95s-.37,7.57-2.6,11.8c-1.08-3-.5-5.49-1.75-7.68-1-1.69-1.84-2.56-3.83-2.82-5.38-.72-10-2.83-12.81-7.89-1.19-2.19-2.77-3.09-5.14-1.66a34.47,34.47,0,0,0-4.44,2.65c-2.37,2-2.14,3.11.74,4.06,2.47.82,3.2,3.33,5,4.79,4.82,3.82,10.74,5,16.25,7.05,3,1.16,4.12,2.84,4.15,6a75,75,0,0,1-.51,11.41,10.25,10.25,0,0,0,.87,6.22c.45-2.48.83-4.57,1.25-6.86,2.57,1.09,2.56,3.28,2.58,5.29a37.68,37.68,0,0,1-.56,5.16c-.14,1,.18,2.91-1.13,2.69s-3.5.39-4.17-2.07c-1.19-4.29-2.92-8.44-4-12.75-1.58-6.23-5.7-9.3-11.7-10.39-2-.36-4.19-.56-3.14-3.59.39-.53,1.44-1.13.77-1.67S62.88,120.09,62.62,120.72ZM55.34,81.13c-.4-1.19-.89-2.29-2.06-2.55-1.48-.33-1.66.69-1.36,1.81.42,1.59-.64,1.2-1.46,1.14s-1.31.67-.81,1c1.72,1.29,1.62,3.94,3.68,4.84.8.35,2,1.36,2.6.27s-.54-1.49-1.42-2.08c-2.43-1.62-2.32-2.13.23-3.77A3.1,3.1,0,0,0,55.34,81.13ZM47.7,84c-1.36-1.38-2.8-3.32-5-3.5-1.22-.11-.84,2.55-2.34,3.14,1.92.43,2.85,2.91,5.15,2.52C46.6,86,47.81,85.9,47.7,84Zm31.12,25.25c1.85,1.19,3.5,1.83,5.16.38a1.2,1.2,0,0,0,0-1.91C82,106.4,80.64,107.84,78.82,109.27Z"/><path class="cls-4" d="M59.79,179.83a9.56,9.56,0,0,0-5.68,1,3,3,0,0,1,0-2.57c.94-2.44.16-3.42-2.46-3.33-2.78.09-4.89-.5-2.74-4,.44-.7,0-2-.47-1.58-3.38,2.83-5.54-2.73-9-.46,1.8-3.58,3.27-6.49,4.74-9.4l0,0c.61.07.76-.4,1-.83a2.34,2.34,0,0,0,1.34-2.28,15.22,15.22,0,0,0,8.51-6c.53-.79,1.08-1.82.38-2.74s-1.62-.42-2.38,0-1.82.72-2.42,0c-3.18-3.65-8.81-2.95-11.85-6.84-1.31-1.68-2.1.16-3,.74s-1.52,1.13-2.36.77c-1.22-.53,0-2-.17-2.1-2.23-1.41-1.4-5.15-2.33-5.5-2.55-.95-2.93-4.44-6.14-4.43-1.21,0-.25-1.36.31-1.89,2.67-2.56,6.23-1.69,8.83,1.17,1.48,1.64,2.58,3.86,5.69,4.38,2,.33,4.2,2.31,6.63,3,1.26.37,2.34,1.44,3.65.17.16-.16.52-.35.66-.27,1.49.78,1,4.74,4.43,2.62.84-.52,2.49,2.33,2.8,4.95,2-.13,2.76-3,4.74-2.41,2.45.68.79,3,1.26,4.51,1.11-.08,1-1.15,1.47-1.8,1.08-1.63,2.12-1.46,3.16,0a10.11,10.11,0,0,1,.57,1c.86,1.64,1.48,3.49,2.65,4.88s3.07.11,4.39.1c3.19,0,1.85,1.61,1.47,2.58-.58,1.48-2,2.68-2.38,4.17-.66,2.44-1.21,4.93.33,7.5,1.9,3.17,3.23,6.69,5,9.94a10.64,10.64,0,0,0,9.59,5.94c8,.27,15.88.22,23.82,0,3.87-.09,6.52-2.18,8.39-5.33,2.5-4.21,3.7-8.94,4.68-13.65.89-4.28-3-6.7-4.64-11.09-1.67,4.59-3.65,8.13-4.16,11.87-.63,4.56-4.18,7.56-5.11,11.83-.21.94-1.8,1.18-2.9,1.42-1.81.4-3.73.58-5.27,1.69s-2.88,1.26-4.21-.25a3.27,3.27,0,0,0-2.39-.8c-6.27-.67-11.8-7.45-11.29-13.91.24-3,3.08-2.39,4.85-2.92s3.74.24,3.7,2.45c0,2,.87,2,2.2,1.88,3.59-.22,7.18-.43,10.76-.66a2.47,2.47,0,0,0,2.29-1.67c.43-1.38-1-1.48-1.79-1.83-4.08-1.84-8-4.4-12.87-2.29-1.11.48-1.8-.9-1.22-1.88,1.66-2.85.65-5.42.14-8.38a106.25,106.25,0,0,1-1.09-11.91c-.29-4.87-.22-8.91,3.53-12.6,1.07-1,1.34-3.26,2.76-4.59s.61-3.28.35-4.93c-.38-2.42-1.14-4.83.64-7.64,1.72,2.51.78,5.8,3.2,7.65.8.61,1,2.16,2.45,1.61,1.2-.47.78-1.67.66-2.62-.19-1.52-1.34-3.52.8-4.16,1.59-.49,3.46,1.32,3.77,2.43,1.65,6,6,10.74,7.71,16.65a7.18,7.18,0,0,1-.1,2c2.82-1.22,2.32-3.38,2.16-5.39-.39-5.22-.4-5.25,4.64-5.1a11.24,11.24,0,0,0,8.62-3.6c.87-.86,1.7-2,2.77-2.39,2.48-.8,2.95-2.44,2.46-4.61-.56-2.46-.13-4.08,3.08-3.67-3.29-4.27-5.25-4.67-8.26-1.47-3.44,3.66-8.27,4.21-12.52,5.9-4.87,1.95-5.26,1.95-3.79,7.1.46,1.6.46,1.6-.23,3.69-4.09-5.56-4.37-13.75-.64-19,2.28-3.23,13.66-6.51,17.43-4.85a9,9,0,0,0,5.39.84c3.61-.63,7.09-1.73,10.85.2,1.44.74,3.82-.39,5.78-.57a2.28,2.28,0,0,1,2.31.94c.46.89-.31,1.58-.89,2.24-2,2.29-3.86,4.43-7.56,2.84-2.53-1.08-5.61,2.18-4.42,4.65,1.12,2.31-1.68,4-.11,6.67,1,1.81-2.74,3.18-4.55,4.57-5.2,4-10.54,7.8-15.47,12.08-3.17,2.74-3,6.86-2.75,10.75.12,1.63.84,1.2,2,.6,5.44-3,11.32-3.89,17.48-3.76,3.07.07,5.46-1,7.78-3.73,1.52-1.79,4.43-3.43,7.11-4.53,1.86-.77,4-.87,5.36-2.95,1-1.52,2.5-.29,3.7.16.93.34,1.87,1.06,1.73,2.17-.2,1.53-1.66,1.73-2.84,1.94-2.37.44-4.34.61-3.23,4.17.62,2-1.83,1.16-2.93,1.27-1.75.17-4.55-2.14-4.15,2.29.13,1.37-1.53.68-2.43.63-3.1-.19-6.27-.64-7.72,3.25-.21.57-1.06,1-1.7,1.32-7.69,4.09-13.14,10-15,18.7-1,4.77-2.44,9.58-5.1,13.49-4.5,6.6-9.87,12.64-19,12.44-3.47-.07-7-.09-10.42-.19a5.71,5.71,0,0,1-2.52-.49c-9.42-5.3-18-11.34-19.3-23.35-.13-1.2-.1-2.51-1.49-3.42-1.22,2.23-2.49,3.12-4.24.25-.77-1.27-2.72-1.59-4.09-1.34-3.95.72-3-1.4-2.35-3.56.76-2.37,2.68-4.46,2-7.32-2,.32-2.16,2-2.66,3.29-.68,1.76-1.1,3.11-3.64,1.74S47.45,158.17,48,161c.27,1.29.55,3.11,2.64,3,2.51-.1,3.46,1.35,3.88,3.58.68,3.62,3.94,5.22,6.3,7.45C63.52,177.58,63.51,178.22,59.79,179.83ZM97,185a16.8,16.8,0,0,0,10.54,0Z"/><path class="cls-4" d="M27.24,158.7c-2-1.24-3.41-3.8-6.46-3.23-.5.09-.64-1.06-.41-1.6.89-2.06-3.62-4.11.09-6.27a5,5,0,0,0,2.78-3.24c-3.1-.79-3.1-.79-8.59.75a2.93,2.93,0,0,1-.23-2.8c.71-2.88-.81-4.25-3.25-4.74-2.65-.54-3.35-1.73-2-4.11.66-1.19.6-2-.63-3.13-3.38-3.13-3.18-7.43-3.22-11.64,0-2.76,1.64-5.09.8-8.3-.72-2.77,2.83-1.24,4.53-1.5.69.67,2.31.68,2.2,1.75-.44,4.31-.73,8.72-2,12.81-.42,1.38-.92,2,.31,2.68,6,3.14,7.1,9.57,9.83,14.85,1.22,2.37,2.08.24,3.1.13s2.25-2.05,3.39,0c.88,1.58,1.55,3-.22,4.57-1.09,1-3.23,2.21-1.55,4.06,1.87,2.06,3.34,5.9,7.26,3.26,2.48-1.68,3.82-1.31,4.61,1.58.1.39.67.75.35,1.23-.6.92-1.32,2.32-2.44,1.94C32.51,156.77,30.48,163.25,27.24,158.7Z"/><path class="cls-6" d="M92.1,192.7l-1.7-.82-12.21-4.77c.19-.44.45-1.27.56-1.25a42.68,42.68,0,0,1,11.71,3.33,24.24,24.24,0,0,0,16,1.56c2.31-.5,4.71-.57,7.07-.84.35,0,.9.08,1-.11,2.15-3,6.61-3,8.48-5.86,1.44-2.23,2-.57,3.61-.35-3.3,2.56-6,4.82-8.93,6.91a9.45,9.45,0,0,1-7,2,3.78,3.78,0,0,0-2.2.11C103.09,195.66,97.59,193.06,92.1,192.7Z"/><path class="cls-4" d="M27.89,117.45c-.08,1.72-4.75,7.09-6.17,7.3s-1.41-.68-1.13-1.61c.41-1.37,1.41-2.8-.85-3.54a1,1,0,0,1-.42-.91c1.34-2.28,2.32-4.41-1.33-5.48,0,0,0-.83.18-.93,2-1.07,2.63-3.23,4-4.79a2.36,2.36,0,0,1,3-.78c1.08.64.59,1.8.09,2.65-.82,1.4-.87,1.92.91,2.94C27.61,113.13,27.73,115.77,27.89,117.45Z"/><path class="cls-6" d="M68.49,180.13c.56,0,1,.11,1.51.09,1.82-.09,3.62-.09,3.93,2.29s-1.35,3.09-3.09,3.51c-2,.47-4.36,1.14-2.94-2.57.66-1.74-.09-2.59-2-2.27-1.2.21-2.71.61-2.38-1.53s.88-4.34,3.72-4.15c2,.13,1.86,1.59,1.5,3.05A14,14,0,0,0,68.49,180.13Z"/><path class="cls-6" d="M31.71,98.24c-2.3-.64-4.45-1.2-6.56-1.85a1.88,1.88,0,0,1-1-.94c-.34-.79.13-1.85.77-1.76,2.37.33.71-4.21,3.69-2.89C31.21,92,32,94.6,33.16,96.86,33.66,97.86,32.43,98.17,31.71,98.24Z"/><path class="cls-6" d="M46.41,156.5a2.34,2.34,0,0,1-1.34,2.28c-.62-.06-1.19-.09-1,.83l0,0c-2.51.06-3.57,2.69-5.74,3.25-1.46.37-3.1,2.59-4.52-.12l.76-.79c3.41-2.27,6.14-5.6,10.28-6.75C45.84,154.91,47.84,154,46.41,156.5Z"/><path class="cls-6" d="M187.07,123.1c1.12,2,3.3,3.6,2.73,6.35-1,.81-.94,3.5-2.93,2.44s-2.88-3.26-2.73-5.69C184.25,124.3,184.51,122.64,187.07,123.1Z"/><path class="cls-6" d="M25.92,98.78c.64.15,2.33-.21,2,1.4-.48,2.12-1.84,3.84-4.3,4-1.22.06-1.73-.34-1.81-2C21.63,99.1,23.3,98.76,25.92,98.78Z"/><path class="cls-6" d="M88.52,133.15c-.12,1,.15,2.67-1,2.4-2.06-.48-2.3-2.57-2.29-4.41,0-1.34-.09-3.83,1.48-3.36C88.86,128.44,88,131.36,88.52,133.15Z"/><path class="cls-7" d="M42.66,73.17c1.44.18,2.6-1,4.19-.7,1.4.28,2.65.64,2.4,2.09a2.34,2.34,0,0,1-3.35,1.86,7.81,7.81,0,0,1-3.31-2.28Z"/><path class="cls-6" d="M187.1,114.82c3.14-.11,4.32,1.35,3.49,4.39-.74,0-1.48.13-2.22.13-1.29,0-2.61-.23-3-1.63S185.93,115.43,187.1,114.82Z"/><path class="cls-6" d="M129.81,185.65c.17-1.41-1.76-1.24-1.85-2.58.45-1.15,1.84.43,2.42-.7.4-.77.59-2.5,1.79-1.74,1.36.87.61,2.73.53,4.13-.09,1.71-1.33.89-2.22.77a3,3,0,0,0-.73.06Z"/><path class="cls-6" d="M180.78,118.72c-.11,1.13-.86,1.46-1.8,1.43-1.45,0-2.81-.48-3.14-2-.23-1.06.75-1.55,1.68-1.44C178.87,116.84,180.19,117.25,180.78,118.72Z"/><path class="cls-4" d="M170.64,122.77c1.36.48,2.68,1.12,2.56,2.93,0,.76-.62,1.51-1.45,1.27a3.57,3.57,0,0,1-2.64-3.11C169,123,169.69,122.62,170.64,122.77Z"/><path class="cls-6" d="M75,145.87c-.29.6-.06,1.78-1.12,1.52A2.61,2.61,0,0,1,72,144.6c0-.75.49-1.54,1.39-1.3C74.58,143.63,74.94,144.7,75,145.87Z"/><path class="cls-3" d="M113.39,64.59c.08-.48.13-1,.23-1.44.17-.8.16-1.79,1.36-1.74.63,0,.71.64.73,1.08.08,1.29.52,2.84-.93,3.56-.63.31-1.06-.76-1.38-1.4Z"/><path class="cls-6" d="M175.5,101.62c1,.26,2,.42,1.81,1.59s-1.1,1.52-2.18,1.36c-.82-.12-1.86-.2-1.66-1.4S174.82,102,175.5,101.62Z"/><path class="cls-5" d="M150.13,72c.62-4.12.62-4.11-4.27-3.92a7.49,7.49,0,0,1-1-.13c.2-1.21,1.81-2.11,1-3.5-.51-.88-.58-1.6.56-2.06s1.61,0,2.17.83.55,2.3,1.95,1.54a3.14,3.14,0,0,0,1.37-3.25c-.39-3.61-3.14-5-6.37-3.3-1.05.55-1.9,1.59-3.29,1.45.72-5.37.68-5.33-4.64-6.34-1.4-.26-3.3,0-3.78-2.16-.15-.7-1-.65-1.57-.35-1.34.7-2.46.95-3.28-.79-.37-.78-1.21-.67-1.94-.26-.51.28-1.49.88-1.59.3-.51-2.94-4.73-3-4.7-6.44,0-1.69-.61-3.94-3.47-2.78-.36.14-1.23-.07-1.34-.33-1.13-2.64-2.64-1.63-4.07-.14-1-2.11-.57-4-.9-5.82s-.82-3.73-2.86-4.45-2.9.9-4,2c-.45.44-.82.95-1.55.88-1.79-4.1-1.12-4.49,3.17-4.82,3.2-.25,6.31.95,9.48.05,1-.28,2.32-.09,2.27,1.62-.18,7.18,2.8,12,9.65,14,8.28,2.47,15.18,7.89,23.43,10.35,2,.58,3.09,2.75,5.08,3.65s4.16,0,6.19.63c-.37,2.61-1.13,4.92-3.5,6.31-1-.37-.88-1.49-1.5-2.09a1.43,1.43,0,0,0-2-.08c-.65.44-1.21,1-.9,1.8a16,16,0,0,0,.86,1.64c2.28,4.72,2.2,4.84-3.06,5.18a5.69,5.69,0,0,0-1.65.69Z"/><path class="cls-1" d="M36.72,8.4h.75C51.28,14.7,62.31,24.57,72.35,35.7c1.16,1.28-.76,5.64-3.07,6.49-1.59.58-3.42.46-5.1.83-2.28.49-2.77-1.14-3.87-2.55-1.47-1.9-4.2-.76-6.31-1.58.52-1.2,1.82-1,2.67-1.59A3.09,3.09,0,0,0,58.32,35c.23-1.76-1.66-2.54-1.64-4.33,0-2.55-2.21-1.45-3.54-1.58-1.7-.17-2.88-.78-3-2.61-.08-1.16-.24-2.57-1.14-3-3.8-2-4.12-6.2-6.15-9.29a9.65,9.65,0,0,0-2.12-2.53c-1.25-.93-2.4-1.23-2.69,1.08a38.46,38.46,0,0,1-1.42,5.38H35.48C35.89,14.84,36.31,11.62,36.72,8.4Z"/><path class="cls-1" d="M169.87,9.94c-.76-.07-1.61-.12-1.93.71-2.05,5.3-7.38,7.69-10.44,11.69-2.66,3.47-6.28,2.61-8.95,4.78,2.41,2.17,5.68,1.33,8.26,3.19-1.64.92-2.82,0-4.05-.15-1.51-.2-2.92-.47-3,1.95s-2.07,1.55-3.42,1.41c-3.67-.39-4.17.11-3.09,3.35.39,1.15,1.53,2.59.53,3.42-1.22,1-2.31-.82-3.53-1.16-2.87-.8-3.58-4.11-6.36-5.21-1.29-.5.14-2,.91-2.54q3.51-2.73,7.22-5.2c8.52-5.72,17.15-11.31,25.24-17.64,2.24-1.76,3.18-1.32,3.44,1.36Z"/><path class="cls-7" d="M169.87,9.94l.81,0c2.23,6,1,12-.58,17.82a78.21,78.21,0,0,1-8.76,20.37c-.55.91-.83,2.86-2.49,1.92s-.79-2.33-.06-3.57c4.11-6.92,8-14,10-21.83C170.05,19.79,170.87,14.93,169.87,9.94Z"/><path class="cls-7" d="M35.48,18.07H36.6c-1.32,11.3,1.78,21.56,7.33,31.26.5.87,1.92,2,.76,2.86-1.39,1-2.58-.53-3.25-1.61A38.67,38.67,0,0,1,35.36,34,64.82,64.82,0,0,1,35.48,18.07Z"/><path class="cls-7" d="M114.89,51.68a18,18,0,0,0,.61-2.58c.12-1.28.65-1.79,1.93-1.49,1.73.4.8,1.4.52,2.26a16.71,16.71,0,0,1-.8,2.45c-.39.78,1.33,2.56-.92,2.32C114.94,54.51,114.68,53.21,114.89,51.68Z"/><path class="cls-3" d="M132.63,76.44c.94-1.24,6-2.39,7-1.54.2.18.35.81.25.87-.36.28-.88.63-1.26.55a24.19,24.19,0,0,0-3.28-.21C134.36,76,133.62,77.36,132.63,76.44Z"/><path class="cls-3" d="M125.35,77.35c-.12-2.61,2-3.93,3.38-5.69C128.6,74.09,127.11,75.79,125.35,77.35Z"/><path class="cls-3" d="M147.6,74.61c-.07,2-3,2.62-2.1,5-2.3-3.16-.1-4.08,2.16-5Z"/><path class="cls-3" d="M120.16,64.31c.36,2,.59,3.41.93,5.35C118.92,68,117.44,66.82,120.16,64.31Z"/><path class="cls-3" d="M147.66,74.7c0-.4.1-.73.58-.67.12,0,.2.29.29.45l-.93.13Z"/><path class="cls-1" d="M145.54,89.86l.25-.25a2.27,2.27,0,0,1,.23.47c0,.06-.14.15-.22.23Z"/><path class="cls-5" d="M150.08,72l-.58.18c.06-.68.39-.21.63-.14C150.13,72,150.08,72,150.08,72Z"/><path class="cls-3" d="M165.44,56.76l0,.48h-.3l.36-.43Z"/><path class="cls-1" d="M32.07,61.11c.16-.15.43-.45.47-.42.41.28.27.59,0,.87Z"/><path class="cls-3" d="M163.62,144.35c-.19-.32-.73-.62-.14-1,.06,0,.4.33.62.52A5.55,5.55,0,0,0,163.62,144.35Z"/><path class="cls-3" d="M164.1,143.86l.8.68-.51.7c-.26-.3-.52-.59-.77-.89A5.55,5.55,0,0,1,164.1,143.86Z"/><path class="cls-3" d="M165,145.8l-.61-.56.51-.7.78.72Z"/><path class="cls-4" d="M181.17,77.76c.44.52,3.25-.61,1.26,2-.78,1,.51,1.25,1,1.34,2.74.54,2.71,2.39,2.27,4.48-.19.88.33,2.13-1.16,2.31-1.21.15-1.43-.46-1.26-1.56.09-.58-.6-.78-1.05-.56-3.49,1.76-3.89-.93-4.79-3.16C176.22,79.67,177.53,77.73,181.17,77.76Z"/><path class="cls-3" d="M55.34,81.13a3.1,3.1,0,0,1-.6.71c-2.55,1.64-2.66,2.15-.23,3.77.88.59,2,1.09,1.42,2.08s-1.8.08-2.6-.27c-2.06-.9-2-3.55-3.68-4.84-.5-.38,0-1.11.81-1s1.88.45,1.46-1.14c-.3-1.12-.12-2.14,1.36-1.81C54.45,78.84,54.94,79.94,55.34,81.13Z"/><path class="cls-7" d="M47.7,84c.11,1.88-1.1,2-2.17,2.16-2.3.39-3.23-2.09-5.15-2.52,1.5-.59,1.12-3.25,2.34-3.14C44.9,80.7,46.34,82.64,47.7,84Z"/><path class="cls-7" d="M78.82,109.27c1.82-1.43,3.16-2.87,5.15-1.53a1.2,1.2,0,0,1,0,1.91C82.32,111.1,80.67,110.46,78.82,109.27Z"/><path class="cls-1" d="M62.62,120.72c.26-.63.59-1.68,1.32-1.11s-.38,1.14-.77,1.67Z"/><path class="cls-7" d="M97,185h10.54A16.8,16.8,0,0,1,97,185Z"/><path class="cls-3" d="M44.12,159.61c-.24-.92.33-.89,1-.83C44.88,159.21,44.73,159.68,44.12,159.61Z"/></svg>